# xmcd
#
# Track frame offsets: 
#        150
#        11273
#        24141
#        37641
#        52296
#        64616
#        79255
#        92054
#        102727
#        116113
#        130474
#        143704
#        158761
#        170192
#        184705
#        197069
#        210500
#        225499
#        237261
#        251616
#        263716
#        279279
#        293374
#        306269
#
# Disc length: 4241 seconds
#
# Revision: 3
# Processed by: cddbd v1.5.2PL0 Copyright (c) Steve Scherf et al.
# Submitted via: ExactAudioCopyFreeDBPlugin 1.0
#
DISCID=48108f18
DTITLE=Various Artist - Lost Deep Soul Treasures [S.O.S. Sounds of So
DTITLE=ul]
DYEAR=2001
DGENRE=Soul
TTITLE0=Bobby Lee - I'm Just A Man
TTITLE1=Johnny Steele - Can't Go On
TTITLE2=Claude "Baby" Huey - Just Won't Believe
TTITLE3=Sonny Rhodes - Finding Out For Myself
TTITLE4=Philly "Guitar" Davis - As I Grow Old
TTITLE5=Internationals - Push Button Love
TTITLE6=Billie Dearborn - Friday's Child
TTITLE7=Rudy Stewart - A Strong Man's Tears Fall Dry
TTITLE8=Jimmy Richards - My New Found Joy
TTITLE9=Reggie Taylor - Anna
TTITLE10=The Superiors Band and Their Soul Singers - Amateur Lover
TTITLE11=Nate Holmes - So Am I
TTITLE12=Helene Smith - True Love Don't Grow On Trees
TTITLE13=Dynamic Adam - She's Gone
TTITLE14=Hesitations - That's Where It's At
TTITLE15=Johnny Sayles - Nothing But Hard Rocks
TTITLE16=Marcell Strong - Mumble In My Ear
TTITLE17=Isonics - He Needs Her
TTITLE18=Lou Pride - We're Only Fooling Ourselves
TTITLE19=Exciting Changes - Falling In Love Again
TTITLE20=Billy Woods - If I Could Only See
TTITLE21=Major Lance - I Have No One
TTITLE22=Bob and Earl - Deep Down Inside
TTITLE23=Andre Williams - I Can't Stop Crying
EXTD=
EXTT0=
EXTT1=
EXTT2=
EXTT3=
EXTT4=
EXTT5=
EXTT6=
EXTT7=
EXTT8=
EXTT9=
EXTT10=
EXTT11=
EXTT12=
EXTT13=
EXTT14=
EXTT15=
EXTT16=
EXTT17=
EXTT18=
EXTT19=
EXTT20=
EXTT21=
EXTT22=
EXTT23=
PLAYORDER=
